<svg width="20" height="20" viewBox="0 0 20 20" fill="none" xmlns="http://www.w3.org/2000/svg">
<g clip-path="url(#clip0_2_595)">
<path d="M4.1459 9.49408C4.14592 9.38273 4.16793 9.2725 4.21067 9.1697C4.25341 9.06688 4.31603 8.97354 4.39495 8.895C4.47389 8.81645 4.56752 8.75427 4.67054 8.71203C4.77356 8.6698 4.8839 8.64832 4.99525 8.64883L6.40344 8.65342C6.62795 8.65342 6.84328 8.74262 7.00203 8.90137C7.1608 9.06014 7.25 9.27546 7.25 9.49998V14.8246C7.40852 14.7775 7.61213 14.7274 7.83492 14.6749C7.98967 14.6386 8.12759 14.551 8.22631 14.4264C8.32502 14.3018 8.37872 14.1475 8.37869 13.9885V7.38359C8.37869 7.15905 8.46787 6.94372 8.62662 6.78493C8.78538 6.62614 9.0007 6.53691 9.22525 6.53687H10.6362C10.8608 6.53691 11.0761 6.62614 11.2348 6.78493C11.3936 6.94372 11.4828 7.15905 11.4828 7.38359V13.5136C11.4828 13.5136 11.8361 13.3706 12.1802 13.2254C12.308 13.1713 12.4171 13.0808 12.4938 12.9652C12.5705 12.8495 12.6115 12.7138 12.6116 12.5751V5.26719C12.6116 5.0427 12.7008 4.82741 12.8595 4.66865C13.0182 4.50988 13.2335 4.42068 13.458 4.42064H14.869C15.0935 4.42064 15.3089 4.50983 15.4676 4.66859C15.6264 4.82734 15.7156 5.04267 15.7156 5.26719V11.2851C16.9389 10.3985 18.1785 9.33228 19.1623 8.05014C19.3051 7.86405 19.3995 7.64552 19.4372 7.41405C19.4749 7.18259 19.4548 6.94537 19.3785 6.72359C18.9231 5.41339 18.1993 4.21267 17.2533 3.19829C16.3072 2.1839 15.1598 1.37817 13.8845 0.832675C12.6092 0.28718 11.234 0.0139247 9.84707 0.0303963C8.46008 0.0468682 7.09182 0.352705 5.82984 0.928334C4.56784 1.50396 3.4399 2.3367 2.51821 3.37328C1.59653 4.40985 0.90138 5.62741 0.477264 6.94806C0.0531487 8.2687 -0.0905982 9.66334 0.0552215 11.0427C0.201041 12.4221 0.633218 13.7559 1.32409 14.9587C1.44444 15.1661 1.6215 15.335 1.83448 15.4453C2.04744 15.5557 2.28748 15.6029 2.52639 15.5816C2.79328 15.5582 3.12557 15.5249 3.52066 15.4785C3.69264 15.459 3.85143 15.3769 3.96675 15.2478C4.0821 15.1187 4.14592 14.9518 4.14607 14.7787L4.1459 9.49408Z" fill="white"/>
<path d="M4.11511 18.0343C5.60237 19.1162 7.36 19.7657 9.19349 19.9108C11.027 20.0557 12.8649 19.6908 14.5038 18.8561C16.1427 18.0213 17.5187 16.7495 18.4797 15.1813C19.4405 13.613 19.9489 11.8095 19.9484 9.9703C19.9484 9.74079 19.9377 9.51372 19.9225 9.28799C16.28 14.7204 9.55462 17.2602 4.11542 18.0334" fill="#8B8B8B"/>
</g>
<defs>
<clipPath id="clip0_2_595">
<rect width="20" height="20" fill="white"/>
</clipPath>
</defs>
</svg>
