<svg width="174" height="24" viewBox="0 0 174 24" fill="none" xmlns="http://www.w3.org/2000/svg">
<path d="M35.8675 23.3456L31.3468 15.5724C31.2432 15.5724 31.1784 15.5724 31.0878 15.5724H27.6422V23.3456H23.1345V0.570988H31.0878C36.6706 0.570988 40.0125 3.59463 40.0125 8.1755C40.0125 11.303 38.484 13.5739 35.725 14.7159L40.9193 23.3326H35.8675V23.3456ZM27.6551 11.5365H31.6836C34.1836 11.5365 35.3494 9.91442 35.3494 8.18848C35.3494 6.39766 34.1447 4.80149 31.6836 4.80149H27.6551V11.5365ZM42.9918 23.3456V0.570988H47.4995V23.3326H42.9918V23.3456ZM68.406 20.9708C67.1755 22.3723 64.4812 23.7998 61.5278 23.7998C54.9994 23.7998 49.7404 18.8296 49.7404 11.9648C49.7404 5.09996 54.9994 0.12977 61.5278 0.12977C66.0356 0.168701 69.805 2.50456 71.8516 6.15109L67.2402 7.35795C66.0097 5.67095 63.7688 4.59386 61.5278 4.59386C57.2792 4.59386 54.4554 7.65643 54.4554 11.9778C54.4554 16.4938 57.5771 19.3876 61.7869 19.3876C65.6858 19.3876 67.7324 17.2464 68.4449 15.4816V14.5083H62.1496V10.8228H72.3049V23.3456H68.406C68.406 21.4639 68.4449 21.0098 68.4449 20.9708H68.406ZM75.4785 23.3456V0.570988H79.9862V23.3326H75.4785V23.3456ZM103.263 0.570988V23.3326H99.0145L92.5508 14.5472C90.5042 11.7442 88.0042 8.1755 87.9783 8.1755H87.9395C87.9136 8.1755 87.9783 11.4587 87.9783 15.9747V23.3197H83.4706V0.570988H87.7193L94.3125 9.44725C95.8669 11.4976 98.7295 15.5594 98.7554 15.5594H98.7943C98.8332 15.5594 98.7554 11.848 98.7554 8.01978V0.570988H103.263ZM19.9091 5.8656L16.2304 9.55107C16.3729 10.2778 16.4506 11.0824 16.4506 11.9518C16.4506 16.6105 14.2615 19.4006 10.5957 19.4006C9.06726 19.4006 7.78489 18.9075 6.8134 17.9731L19.5594 5.20377C19.2226 4.59385 18.834 4.03584 18.3936 3.51676C18.2122 3.29616 18.0179 3.1015 17.8236 2.89387C17.7977 2.86792 17.7718 2.84196 17.7459 2.81601C17.6812 2.7641 17.6293 2.69921 17.5646 2.64731C15.6993 0.908389 13.3289 0 10.5957 0C7.44811 0 4.75384 1.20686 2.8238 3.50379C0.997399 5.67095 0 8.66863 0 11.9518C0 14.1319 0.44041 16.1823 1.26942 17.9472L4.97404 14.2358C4.84451 13.535 4.77974 12.7694 4.77974 11.9388C4.77974 9.79763 5.22015 8.05871 6.07507 6.77399C7.08542 5.28164 8.65276 4.49004 10.5957 4.49004C12.1113 4.49004 13.3807 4.97019 14.3392 5.8656L1.61915 18.609C1.96889 19.2449 2.37044 19.8418 2.8238 20.3739C2.91448 20.4777 3.00515 20.5815 3.10878 20.6853C3.2124 20.8021 3.32898 20.9189 3.44556 21.0357C3.45851 21.0487 3.47147 21.0617 3.48442 21.0746C3.52328 21.1136 3.54919 21.1525 3.58805 21.1785C5.44036 22.9433 7.83671 23.8777 10.5957 23.8777C13.7563 23.8777 16.4506 22.6708 18.3936 20.3739C20.22 18.2067 21.2303 15.222 21.2303 11.9388C21.2303 9.73274 20.764 7.64345 19.9091 5.8656Z" fill="#0074F0"/>
<path d="M120.259 0.711516H111.158V23.4806H120.198C126.56 23.4806 131.37 19.2799 131.37 12.0961C131.37 4.91224 126.621 0.711516 120.259 0.711516ZM120.259 3.8164C124.704 3.8164 127.748 6.64732 127.748 12.0961C127.748 17.5448 124.643 20.3758 120.229 20.3758H114.75V3.8164H120.259Z" fill="white"/>
<path d="M149.072 15.2923C149.072 10.5436 146.241 7.59096 141.767 7.59096C137.231 7.59096 133.974 10.6045 133.974 15.688C133.974 20.741 137.261 23.785 141.858 23.785C145.48 23.785 148.311 21.5629 148.92 18.7929L145.48 18.6102C145.054 20.0105 143.745 20.8324 141.767 20.8324C139.392 20.8324 137.779 19.3408 137.596 16.9665H149.072V15.2923ZM141.736 10.5132C144.263 10.5132 145.541 12.0352 145.632 14.2878H137.627C137.779 11.8526 139.453 10.5132 141.736 10.5132Z" fill="white"/>
<path d="M166.61 0.711516H152.303V23.4806H155.926V13.4659H164.753V10.2697H155.926V3.90772H166.61V0.711516Z" fill="white"/>
<path d="M171.229 0.315796C170.072 0.315796 169.098 1.25944 169.098 2.4466C169.098 3.63376 170.041 4.5774 171.229 4.5774C172.416 4.5774 173.39 3.63376 173.39 2.4466C173.39 1.25944 172.416 0.315796 171.229 0.315796ZM172.933 7.86492H169.524V23.4806H172.933V7.86492Z" fill="white"/>
</svg>
