<svg width="204" height="29" viewBox="0 0 204 29" xmlns="http://www.w3.org/2000/svg">
    <g fill-rule="nonzero" fill="none">
        <path d="M98.45 20.466V.556h7.038c6.096 0 10.523 4.223 10.523 10.046 0 5.812-4.314 9.864-10.5 9.864h-7.06zm3.94-3.575h2.826c3.144 0 6.822-1.646 6.822-6.277 0-4.462-3.428-6.46-6.822-6.46h-2.827v12.737zm47.766 3.575V16.88h-8.071V.556h-3.94v19.91h12.01zm14.064 0V16.88h-8.07V.556h-3.94v19.91h12.01zm17.447 0-1.26-3.484h-9.501l-1.26 3.484h-4.132L173.2.556h4.983l7.708 19.91h-4.223zM175.219 5.29c-.102.102-.102.102-.794 1.918l-.5 1.328-1.77 4.95h6.992l-1.76-4.904c-.272-.738-.522-1.385-.715-1.896-.488-1.294-.488-1.294-.59-1.396l-.159-.16h-.545l-.159.16zm23.441 15.176-3.928-6.935h-3.121v6.935h-3.94V.556h7.436c4.904 0 7.821 2.452 7.821 6.561 0 2.645-1.283 4.586-3.61 5.46l-.624.239 4.643 7.65h-4.677zm-7.06-9.852h3.825c2.18 0 3.428-1.181 3.428-3.247 0-2.123-1.26-3.337-3.462-3.337h-3.792v6.584zM133.627 3.2C131.948 1.215 129.61.16 126.874.16c-2.736 0-5.074 1.056-6.754 3.042-1.578 1.873-2.452 4.473-2.452 7.31 0 2.838.874 5.438 2.463 7.31 1.692 1.987 3.996 3.043 6.743 3.043 2.736 0 5.051-1.056 6.743-3.042 1.589-1.873 2.463-4.473 2.463-7.31 0-2.838-.874-5.438-2.452-7.31zm-6.754 13.77c-3.178 0-5.051-2.419-5.051-6.46 0-1.861.374-3.36 1.123-4.472.875-1.294 2.237-1.987 3.928-1.987 1.691 0 3.054.682 3.928 1.987.749 1.101 1.123 2.61 1.123 4.472 0 4.041-1.861 6.46-5.05 6.46z" fill="#687F89"/>
        <path d="m31.466 20.478-3.95-6.8h-3.247v6.8h-3.95V.556h6.97c4.892 0 7.82 2.645 7.82 6.652 0 2.736-1.339 4.722-3.757 5.721l4.552 7.537h-4.438v.012zm-7.197-10.33h3.53c2.191 0 3.213-1.419 3.213-2.929 0-1.566-1.056-2.962-3.213-2.962h-3.53v5.891zm13.44 10.33V.556h3.95v19.91h-3.95v.012zM59.981 18.4c-1.079 1.225-3.44 2.474-6.028 2.474-5.721 0-10.33-4.347-10.33-10.352S48.232.17 53.953.17c3.95.034 7.253 2.078 9.047 5.267l-4.041 1.056c-1.078-1.476-3.042-2.418-5.006-2.418-3.723 0-6.198 2.68-6.198 6.46 0 3.95 2.736 6.48 6.425 6.48 3.417 0 5.21-1.872 5.835-3.416v-.851h-5.529V9.535h8.9V20.49h-3.417c0-1.646.034-2.043.034-2.077h-.022V18.4zm6.197 2.077V.556h3.95v19.91h-3.95v.012zM90.538.556v19.91h-3.723l-5.664-7.684c-1.794-2.452-3.985-5.574-4.007-5.574h-.034c-.023 0 .034 2.872.034 6.822v6.425h-3.95V.556h3.723l5.778 7.765c1.362 1.793 3.87 5.346 3.893 5.346h.034c.034 0-.034-3.246-.034-6.595V.556h3.95zm-73.057 4.62L14.257 8.4c.125.636.193 1.34.193 2.1 0 4.075-1.918 6.516-5.13 6.516-1.34 0-2.464-.432-3.315-1.249l11.17-11.17a8.978 8.978 0 0 0-1.022-1.475c-.159-.193-.33-.364-.5-.545l-.068-.068c-.056-.046-.102-.103-.159-.148C13.803.851 11.715.045 9.331.045 6.572.045 4.21 1.101 2.52 3.11.93 4.995.045 7.617.045 10.49c0 1.907.386 3.7 1.113 5.244l3.246-3.247a11.053 11.053 0 0 1-.17-2.009c0-1.873.386-3.394 1.135-4.518.886-1.305 2.26-1.997 3.962-1.997 1.328 0 2.44.42 3.28 1.203L1.464 16.312a9.26 9.26 0 0 0 1.056 1.544c.08.09.159.181.25.272.09.102.193.204.295.307l.034.034c.034.034.057.068.09.09 1.624 1.544 3.724 2.362 6.142 2.362 2.77 0 5.13-1.056 6.833-3.065 1.6-1.896 2.486-4.507 2.486-7.379-.011-1.907-.42-3.734-1.169-5.3z" fill="#FFF"/>
        <g opacity=".6" fill="#97A9B1">
            <path d="M178.17.556h-4.982l-3.803 9.853h3.87l.67-1.861.5-1.329c.68-1.816.68-1.816.794-1.918l.16-.159h.544l.16.16c.101.101.101.101.59 1.395.192.511.43 1.17.715 1.896l.658 1.828h3.95L178.171.556zM195.096.556h-7.435v9.853h3.938V4.02h3.792c2.202 0 3.462 1.214 3.462 3.337 0 1.566-.727 2.633-2.032 3.053h5.233c.568-.908.874-2.02.874-3.292-.011-4.109-2.929-6.56-7.832-6.56zM152.21.557h3.94v9.853h-3.94zM105.488.556H98.45v9.853h3.94V4.143h2.826c3.348 0 6.72 1.941 6.822 6.266h3.973c-.102-5.72-4.495-9.853-10.523-9.853zM133.628 3.201C131.948 1.215 129.61.16 126.874.16c-2.736 0-5.074 1.056-6.754 3.042-1.566 1.85-2.43 4.404-2.452 7.208h4.155c.011-1.816.386-3.28 1.123-4.37.875-1.294 2.237-1.987 3.928-1.987 1.691 0 3.054.682 3.928 1.987.737 1.09 1.112 2.554 1.123 4.37h4.155c-.023-2.804-.885-5.358-2.452-7.208zM138.146.557h3.94v9.853h-3.94z"/>
        </g>
        <g fill="#4BBC8A">
            <path d="M155.384 28.517c0-.294.011-.317.011-.35h-.011c-.295.248-.85.452-1.44.452-1.416 0-2.618-1.065-2.618-2.652 0-1.553 1.122-2.64 2.641-2.64 1.156 0 2.04.645 2.37 1.473l-1.214.328c-.192-.328-.578-.646-1.224-.646-.827 0-1.349.612-1.349 1.497 0 .906.59 1.496 1.497 1.496.702 0 1.133-.306 1.292-.522v-.238h-1.281v-1.133h2.414v2.958h-1.088v-.023zM159.691 23.315c1.553 0 2.686 1.088 2.686 2.652 0 1.553-1.133 2.652-2.686 2.652s-2.686-1.088-2.686-2.652 1.122-2.652 2.686-2.652zm0 4.148c.85 0 1.45-.578 1.45-1.496s-.611-1.496-1.45-1.496-1.45.578-1.45 1.496c-.012.907.6 1.496 1.45 1.496zM164.259 28.517l-1.825-5.1h1.394l.782 2.414c.318.952.442 1.349.442 1.372h.023c.011-.023.136-.42.442-1.35l.793-2.436h1.327l-1.825 5.1h-1.553zM168.124 23.417h3.718v1.133h-2.494v.873h1.836v1.02h-1.836v.93h2.528v1.133h-3.752zM174.358 26.829h-.544v1.677h-1.224v-5.1h1.938c1.28 0 2.029.668 2.029 1.722 0 .703-.34 1.213-.964 1.451l1.168 1.927h-1.451l-.952-1.677zm.25-.975c.453 0 .702-.227.702-.658 0-.419-.238-.68-.703-.68h-.782v1.338h.782zM178.518 25.469h-.023c0 .01.011.634.011 1.292v1.745h-1.224v-5.1h1.236l2.164 2.98h.023c0-.01-.011-.657-.011-1.212v-1.768h1.224v5.1h-1.247l-2.153-3.037zM184.026 27.667l-.306.85h-1.292l1.96-5.1h1.395l1.972 5.1h-1.303l-.306-.85h-2.12zm1.349-2.12c-.159-.419-.272-.747-.283-.747h-.023c-.011.011-.125.317-.283.748l-.363 1.02h1.315l-.363-1.02zM189.49 25.469h-.023c0 .01.011.634.011 1.292v1.745h-1.213v-5.1h1.236l2.165 2.98h.022c0-.01-.011-.657-.011-1.212v-1.768h1.224v5.1h-1.247l-2.165-3.037zM198.58 27.01c-.374.986-1.315 1.61-2.426 1.61-1.519 0-2.64-1.066-2.64-2.664 0-1.553 1.121-2.641 2.64-2.641 1.167 0 2.029.646 2.369 1.473l-1.213.33c-.26-.409-.68-.647-1.224-.647-.827 0-1.349.612-1.349 1.496 0 .907.556 1.496 1.349 1.496.669 0 1.088-.351 1.292-.77l1.202.317zM199.18 23.417h3.718v1.133h-2.494v.873h1.837v1.02h-1.848v.93h2.528v1.133h-3.752v-5.089z"/>
        </g>
    </g>
</svg>
