<svg width="818" height="818" viewBox="0 0 818 818" fill="none" xmlns="http://www.w3.org/2000/svg">
<path d="M410.568 815.903C635.458 815.149 817.157 632.229 816.403 407.338C815.649 182.448 632.729 0.749358 407.839 1.50297C182.948 2.25657 1.24941 185.177 2.00302 410.068C2.75662 634.958 185.677 816.657 410.568 815.903Z" fill="#1E313F"/>
<path opacity="0.2" d="M663.7 661.5C803.3 520.9 802.6 293.8 662 154.2C521.4 14.6 294.3 15.3 154.7 155.9L663.7 661.5Z" fill="white"/>
<path d="M629.3 287.4L583 240.7L557.8 266.3C557.7 266.2 557.6 266.1 557.5 266L537 286.7L410.9 414.5L331.1 333.6C314.6 350.8 303.7 373.4 301.3 398.4L410.9 509.5L534.9 383.8C536.5 391.8 537.3 400.1 537.3 408.6C537.3 479.2 479.8 536.7 409.2 536.7C338.6 536.7 281.1 479.2 281.1 408.6C281.1 338 338.6 280.5 409.2 280.5C438.2 280.5 465 290.2 486.5 306.5L541.4 250.8C505.6 220.8 459.5 202.6 409.2 202.6C295.7 202.6 203.3 295 203.3 408.5C203.3 522.1 295.7 614.4 409.2 614.4C522.7 614.4 615.1 522 615.1 408.5C615.1 377.3 608.1 347.8 595.7 321.3L629.3 287.4Z" fill="white"/>
<path d="M410.9 509.5L301.4 398.4C303.8 373.3 314.7 350.8 331.2 333.6L411 414.5V509.5H410.9Z" fill="url(#paint0_linear_1_7)"/>
<defs>
<linearGradient id="paint0_linear_1_7" x1="273.914" y1="334.472" x2="371.987" y2="422.435" gradientUnits="userSpaceOnUse">
<stop stop-color="#1D313F"/>
<stop offset="1" stop-color="white"/>
</linearGradient>
</defs>
</svg>
