<svg width="24" height="24" viewBox="0 0 24 24" fill="none" xmlns="http://www.w3.org/2000/svg">
<mask id="mask0_64_1422" style="mask-type:luminance" maskUnits="userSpaceOnUse" x="0" y="0" width="24" height="24">
<path fill-rule="evenodd" clip-rule="evenodd" d="M0 0H24V24H0V0Z" fill="white"/>
</mask>
<g mask="url(#mask0_64_1422)">
<path fill-rule="evenodd" clip-rule="evenodd" d="M11.9598 6.87233e-05C18.5872 -0.0221217 23.9777 5.33241 23.9999 11.9598C24.0221 18.5872 18.6676 23.9777 12.0402 23.9999C5.41283 24.0221 0.0222886 18.6676 6.87233e-05 12.0402C-0.0221217 5.41283 5.33241 0.0222592 11.9598 6.87233e-05Z" fill="#030C17"/>
</g>
<path opacity="0.1" fill-rule="evenodd" clip-rule="evenodd" d="M19.4999 19.4498C23.6138 15.3064 23.5932 8.61389 19.4498 4.49997C15.3064 0.386044 8.61393 0.406673 4.5 4.55007L19.4999 19.4498Z" fill="white"/>
<path fill-rule="evenodd" clip-rule="evenodd" d="M18.4861 8.42527L17.1217 7.04905L16.379 7.80347C16.3761 7.80052 16.3731 7.79758 16.3702 7.79463L15.7661 8.40464L12.05 12.1708L9.69832 9.78676C9.21207 10.2936 8.89086 10.9596 8.82013 11.6964L12.05 14.9704L15.7042 11.2661C15.7513 11.5019 15.7749 11.7465 15.7749 11.997C15.7749 14.0775 14.0804 15.772 11.9999 15.772C9.91934 15.772 8.22485 14.0775 8.22485 11.997C8.22485 9.91642 9.91934 8.22193 11.9999 8.22193C12.8545 8.22193 13.6443 8.50779 14.2779 8.98814L15.8958 7.34669C14.8407 6.46261 13.4822 5.92627 11.9999 5.92627C8.6551 5.92627 5.93213 8.64924 5.93213 11.994C5.93213 15.3417 8.6551 18.0618 11.9999 18.0618C15.3447 18.0618 18.0676 15.3388 18.0676 11.994C18.0676 11.0746 17.8613 10.2052 17.4959 9.42428L18.4861 8.42527Z" fill="white"/>
<mask id="mask1_64_1422" style="mask-type:luminance" maskUnits="userSpaceOnUse" x="8" y="9" width="5" height="6">
<path fill-rule="evenodd" clip-rule="evenodd" d="M8.82312 11.6964L12.05 14.9704H12.053V12.1708L9.70131 9.78674C9.21509 10.2936 8.89385 10.9567 8.82312 11.6964Z" fill="white"/>
</mask>
<g mask="url(#mask1_64_1422)">
<path fill-rule="evenodd" clip-rule="evenodd" d="M8.82312 11.6964L12.05 14.9704H12.053V12.1708L9.70131 9.78674C9.21509 10.2936 8.89385 10.9567 8.82312 11.6964Z" fill="url(#paint0_linear_64_1422)"/>
</g>
<defs>
<linearGradient id="paint0_linear_64_1422" x1="7.2062" y1="12.131" x2="10.5888" y2="13.3088" gradientUnits="userSpaceOnUse">
<stop stop-color="#1C313F"/>
<stop offset="1" stop-color="white"/>
</linearGradient>
</defs>
</svg>
