<svg width="24" height="24" viewBox="0 0 24 24" fill="none" xmlns="http://www.w3.org/2000/svg">
<path d="M12.8843 7.16473e-05C6.76456 0.0191192 1.82036 4.99597 1.83941 11.1157C1.84213 12.2667 2.02172 13.3742 2.35097 14.4163C3.05301 14.0817 3.8394 13.8912 4.66933 13.8912C7.64075 13.8912 10.0571 16.3075 10.0571 19.2789C10.0571 20.1197 9.86387 20.917 9.5183 21.6272C10.6013 21.9755 11.7577 22.1633 12.9577 22.1578C19.0774 22.136 24.0216 17.1592 23.9999 11.0395C23.9781 4.91978 19.0013 -0.021697 12.8843 7.16473e-05Z" fill="#030C17"/>
<path opacity="0.2" d="M19.8449 17.9592C23.6435 14.1334 23.6245 7.95378 19.7987 4.15516C15.9728 0.356532 9.79326 0.37558 5.99463 4.20142L19.8449 17.9592Z" fill="white"/>
<path d="M18.9087 7.77964L17.6488 6.5089L16.9631 7.20549C16.9604 7.20277 16.9577 7.20005 16.955 7.19733L16.3971 7.7606L12.9659 11.2381L10.7944 9.03678C10.3455 9.50481 10.0489 10.1198 9.98355 10.8L12.9659 13.8232L16.34 10.4028C16.3835 10.6204 16.4053 10.8463 16.4053 11.0776C16.4053 12.9987 14.8407 14.5633 12.9196 14.5633C10.9985 14.5633 9.43389 12.9987 9.43389 11.0776C9.43389 9.15651 10.9985 7.59189 12.9196 7.59189C13.7087 7.59189 14.438 7.85583 15.023 8.29937L16.5169 6.78373C15.5427 5.9674 14.2883 5.47217 12.9196 5.47217C9.83117 5.47217 7.31689 7.98644 7.31689 11.0749C7.31689 14.166 9.83117 16.6776 12.9196 16.6776C16.008 16.6776 18.5223 14.1633 18.5223 11.0749C18.5223 10.2259 18.3318 9.42317 17.9944 8.70209L18.9087 7.77964Z" fill="white"/>
<path d="M12.9659 13.8232L9.98633 10.8C10.0516 10.117 10.3482 9.5048 10.7972 9.03677L12.9686 11.2381V13.8232H12.9659Z" fill="url(#paint0_linear_64_776)"/>
<path d="M4.66937 14.6095C2.09523 14.6095 0 16.7048 0 19.2789C0 21.8531 2.09523 23.9483 4.66937 23.9483C7.24351 23.9483 9.33874 21.8531 9.33874 19.2789C9.33874 16.7048 7.24623 14.6095 4.66937 14.6095Z" fill="#00C483"/>
<path d="M2.47065 17.6381L3.21894 20.1333L3.9618 17.6381H5.16996L3.94819 21.2653H2.47881L1.25977 17.6381H2.47065Z" fill="white"/>
<path d="M6.56068 18.5388V18.9905H7.68993V19.8449H6.5634V20.3565H7.84503V21.2653H5.42871V17.6381H7.84503V18.5388H6.56068Z" fill="white"/>
<defs>
<linearGradient id="paint0_linear_64_776" x1="9.23841" y1="9.06051" x2="11.9071" y2="11.454" gradientUnits="userSpaceOnUse">
<stop stop-color="#1D313F"/>
<stop offset="1" stop-color="white"/>
</linearGradient>
</defs>
</svg>
