<svg width="883" height="881" viewBox="0 0 883 881" fill="none" xmlns="http://www.w3.org/2000/svg">
<path d="M473.9 0.500009C249 1.20001 67.3 184.1 68 409C68.1 451.3 74.7 492 86.8 530.3C112.6 518 141.5 511 172 511C281.2 511 370 599.8 370 709C370 739.9 362.9 769.2 350.2 795.3C390 808.1 432.5 815 476.6 814.8C701.5 814 883.2 631.1 882.4 406.2C881.6 181.3 698.7 -0.299991 473.9 0.500009Z" fill="#1E313F"/>
<path opacity="0.2" d="M729.7 660.5C869.3 519.9 868.6 292.8 728 153.2C587.4 13.6 360.3 14.3 220.7 154.9L729.7 660.5Z" fill="white"/>
<path d="M695.3 286.4L649 239.7L623.8 265.3C623.7 265.2 623.6 265.1 623.5 265L603 285.7L476.9 413.5L397.1 332.6C380.6 349.8 369.7 372.4 367.3 397.4L476.9 508.5L600.9 382.8C602.5 390.8 603.3 399.1 603.3 407.6C603.3 478.2 545.8 535.7 475.2 535.7C404.6 535.7 347.1 478.2 347.1 407.6C347.1 337 404.6 279.5 475.2 279.5C504.2 279.5 531 289.2 552.5 305.5L607.4 249.8C571.6 219.8 525.5 201.6 475.2 201.6C361.7 201.6 269.3 294 269.3 407.5C269.3 521.1 361.7 613.4 475.2 613.4C588.7 613.4 681.1 521 681.1 407.5C681.1 376.3 674.1 346.8 661.7 320.3L695.3 286.4Z" fill="white"/>
<path d="M476.9 508.5L367.4 397.4C369.8 372.3 380.7 349.8 397.2 332.6L477 413.5V508.5H476.9Z" fill="url(#paint0_linear_1_17)"/>
<path d="M172 537.4C77.4 537.4 0.400024 614.4 0.400024 709C0.400024 803.6 77.4 880.6 172 880.6C266.6 880.6 343.6 803.6 343.6 709C343.6 614.4 266.7 537.4 172 537.4Z" fill="#00C483"/>
<path d="M91.2 648.7L118.7 740.4L146 648.7H190.4L145.5 782H91.5L46.7 648.7H91.2Z" fill="white"/>
<path d="M241.5 681.8V698.4H283V729.8H241.6V748.6H288.7V782H199.9V648.7H288.7V681.8H241.5V681.8Z" fill="white"/>
<defs>
<linearGradient id="paint0_linear_1_17" x1="339.914" y1="333.472" x2="437.987" y2="421.435" gradientUnits="userSpaceOnUse">
<stop stop-color="#1D313F"/>
<stop offset="1" stop-color="white"/>
</linearGradient>
</defs>
</svg>
